<?xml version="1.0" encoding="UTF-8"?>
<svg id="Layer_1" data-name="Layer 1" xmlns="http://www.w3.org/2000/svg" viewBox="0 0 223.04 172.8">
  <g>
    <circle cx="30.9" cy="156.93" r="11.38"/>
    <path d="M30.9,172.8c-8.75,0-15.87-7.12-15.87-15.87s7.12-15.87,15.87-15.87,15.87,7.12,15.87,15.87-7.12,15.87-15.87,15.87ZM30.9,150.04c-3.8,0-6.89,3.09-6.89,6.89s3.09,6.89,6.89,6.89,6.89-3.09,6.89-6.89-3.09-6.89-6.89-6.89Z"/>
  </g>
  <g>
    <circle cx="192.19" cy="156.93" r="11.38"/>
    <path d="M192.19,172.8c-8.75,0-15.87-7.12-15.87-15.87s7.12-15.87,15.87-15.87,15.87,7.12,15.87,15.87-7.12,15.87-15.87,15.87ZM192.19,150.04c-3.8,0-6.89,3.09-6.89,6.89s3.09,6.89,6.89,6.89,6.89-3.09,6.89-6.89-3.09-6.89-6.89-6.89Z"/>
  </g>
  <g>
    <g>
      <g>
        <path d="M193.74,85.96l28.24-16.72-7.27-12.58-28.03,16.34c-15.84-22.19-40.52-37.02-67.86-39.2V.78h-14.49v33.01c-27.36,2.16-52.01,17.01-67.86,39.2l-28.03-16.34-7.36,12.33,28.33,16.97c-5.88,12.04-8.83,25.56-8.83,39.08h21.52c-.22-18.98,7.36-38.41,24.8-53.38,38.08-32.69,98.36-13.61,111.46,34.57,1.7,6.25,2.47,12.57,2.42,18.81h21.8c0-13.53-2.93-27.07-8.84-39.08Z"/>
        <path d="M203.36,125.82h-23.36v-.79c.06-6.31-.75-12.57-2.39-18.6-6.11-22.49-23.33-40.1-46.04-47.13-22.59-6.98-46.58-2.15-64.17,12.95-16.06,13.78-24.77,32.52-24.53,52.78v.79s-23.08,0-23.08,0v-.78c0-13.62,2.97-27.01,8.59-38.78L0,69.26l8.16-13.67,28.09,16.37c16.27-22.44,40.72-36.58,67.3-38.89V0h16.05v33.07c26.6,2.33,51.06,16.46,67.3,38.89l28.09-16.37,8.05,13.93-28.29,16.75c5.64,11.73,8.61,25.12,8.6,38.78v.78ZM181.56,124.26h20.24c-.1-13.4-3.13-26.51-8.76-37.96l-.32-.65,28.2-16.7-6.49-11.24-27.97,16.3-.41-.58c-16.12-22.58-40.64-36.76-67.29-38.88l-.72-.06V1.56h-12.94v32.95l-.72.06c-26.62,2.1-51.15,16.27-67.29,38.88l-.41.58-27.98-16.31-6.57,11,28.28,16.94-.32.65c-5.61,11.49-8.63,24.6-8.75,37.96h19.96c0-20.42,8.88-39.28,25.08-53.19,17.99-15.45,42.53-20.4,65.64-13.25,23.22,7.18,40.82,25.2,47.08,48.21,1.61,5.92,2.43,12.05,2.45,18.24Z"/>
      </g>
      <g>
        <path d="M162.18,103.95c-.47-2.01-6.02-12.45-7.64-12.19l-21.57,12.34c-4.38-3.19-8.71-6.55-14.16-7.69v-26.21h-14.49v26.21c-5.45,1.14-9.78,4.5-14.16,7.69l-21.57-12.34c-1.74-.28-7,10.25-7.69,12.18l21.94,12.85c-.1,2.83-.68,5.41-.79,8.26h14.66c-.14-5.76,2.75-11.52,9.4-13.97,12.22-4.49,19.86,4.74,20.16,13.97h14.79c-.1-2.84-.68-5.43-.79-8.26l21.89-12.84Z"/>
        <path d="M141.88,125.82h-16.35l-.03-.75c-.17-5.05-2.59-9.76-6.32-12.3-3.54-2.4-7.97-2.74-12.8-.96-5.72,2.1-9.05,7.04-8.89,13.21l.02.8h-16.26l.03-.81c.05-1.46.23-2.86.4-4.21.15-1.16.3-2.36.36-3.58l-22.1-12.94.22-.61c.05-.13,5.74-13.13,8.55-12.69l.26.09,21.13,12.09.48-.35c3.93-2.87,7.99-5.84,12.95-7.04v-26.37h16.05v26.37c4.96,1.2,9.02,4.16,12.95,7.03l.49.36,21.39-12.19s.09,0,.13,0c2.58,0,8.04,11.32,8.38,12.79l.13.56-21.98,12.89c.07,1.22.22,2.41.36,3.58.17,1.35.35,2.75.4,4.22l.03.81ZM127.02,124.26h13.24c-.07-1.11-.21-2.2-.35-3.27-.17-1.34-.34-2.74-.4-4.18l-.02-.47,21.76-12.76c-.98-2.64-5.18-10.15-6.59-11l-21.74,12.44-1.3-.95c-3.96-2.89-8.05-5.88-12.97-6.91l-.62-.13v-26.07h-12.94v26.07l-.62.13c-4.92,1.03-9.02,4.02-12.97,6.91l-1.29.94-21.8-12.48c-1.25.6-5.27,8.04-6.54,11.05l21.77,12.75-.02.47c-.05,1.45-.23,2.84-.4,4.18-.14,1.06-.27,2.15-.35,3.26h13.06c.14-6.42,3.88-11.71,9.92-13.92,6.72-2.47,11.43-.74,14.2,1.14,3.95,2.68,6.57,7.53,6.96,12.78Z"/>
      </g>
    </g>
    <g>
      <circle cx="111.56" cy="156.93" r="11.38"/>
      <path d="M111.56,172.8c-8.75,0-15.87-7.12-15.87-15.87s7.12-15.87,15.87-15.87,15.87,7.12,15.87,15.87-7.12,15.87-15.87,15.87ZM111.56,150.04c-3.8,0-6.89,3.09-6.89,6.89s3.09,6.89,6.89,6.89,6.89-3.09,6.89-6.89-3.09-6.89-6.89-6.89Z"/>
    </g>
    <g>
      <line x1="19.46" y1="157.73" x2="203.57" y2="157.55"/>
      <rect x="19.46" y="154.05" width="184.11" height="7.18"/>
    </g>
  </g>
</svg>