<?xml version="1.0" encoding="UTF-8"?>
<svg id="Layer_1" data-name="Layer 1" xmlns="http://www.w3.org/2000/svg" viewBox="0 0 685.05 223.39">
  <defs>
    <style>
      .cls-1 {
        fill: #fff;
      }
    </style>
  </defs>
  <g>
    <g>
      <polygon class="cls-1" points="44.3 65.1 44.3 180.25 63.72 180.25 63.72 143.78 78.4 143.78 98.93 157.51 98.93 180.25 118.34 180.25 118.34 147.09 100.19 134.94 98.98 134.28 118.34 121.05 118.34 87.89 98.93 87.89 98.93 110.63 78.4 124.36 63.72 124.36 64.24 65.1 44.3 65.1"/>
      <path class="cls-1" d="M118.84,180.75h-20.42v-22.97l-20.17-13.5h-14.03v36.47h-20.42v-116.14h20.94l-.52,59.26h14.03l20.17-13.5v-22.97h20.42v33.92l-18.91,12.92.49.27,18.42,12.33v33.92ZM99.43,179.75h18.42v-32.39l-17.93-12.01-1.89-1.03,19.82-13.55v-32.39h-18.42v22.5l-.22.15-20.65,13.82h-15.34l.52-59.26h-18.93v114.14h18.42v-36.47h15.33l.13.08,20.74,13.88v22.5Z"/>
    </g>
    <g>
      <g>
        <g>
          <g>
            <path class="cls-1" d="M147.41,65.41h16.99v115.01h-16.99v-115.01Z"/>
            <path class="cls-1" d="M164.91,180.92h-17.99v-116.01h17.99v116.01ZM147.91,179.92h15.99v-114.01h-15.99v114.01Z"/>
          </g>
          <g>
            <path class="cls-1" d="M164.92,180.93h-18.02v-116.03h18.02v116.03ZM147.93,179.9h15.97v-113.98h-15.97v113.98Z"/>
            <path class="cls-1" d="M165.42,181.43h-19.02v-117.03h19.02v117.03ZM147.4,180.43h17.02v-115.03h-17.02v115.03ZM164.39,180.4h-16.97v-114.98h16.97v114.98ZM148.43,179.4h14.97v-112.98h-14.97v112.98Z"/>
          </g>
        </g>
        <g>
          <g>
            <path class="cls-1" d="M198.39,97.93v61.02l5.12,4.97h40.74l5.12-4.97v-61.02h16.99v65.99l-16.99,16.5h-50.98l-16.99-16.5v-65.99h16.99Z"/>
            <path class="cls-1" d="M249.57,180.92h-51.38l-17.29-16.79v-66.7h17.99v61.31l4.82,4.68h40.34l4.82-4.68v-61.31h17.99v66.7l-.15.15-17.14,16.64ZM198.59,179.92h50.57l16.69-16.21v-65.28h-15.99v60.73l-5.41,5.25h-41.15l-5.41-5.25v-60.73h-15.99v65.28l16.69,16.21Z"/>
          </g>
          <g>
            <path class="cls-1" d="M249.57,180.93h-51.39l-17.3-16.79v-66.72h18.02v61.32l4.81,4.67h40.33l4.81-4.67v-61.32h18.02v66.72l-.16.15-17.14,16.64ZM198.6,179.9h50.56l16.69-16.2v-65.26h-15.97v60.73l-5.42,5.26h-41.16l-5.42-5.26v-60.73h-15.97v65.26l16.69,16.2Z"/>
            <path class="cls-1" d="M249.78,181.43h-51.8l-17.59-17.08v-67.43h19.02v61.61l4.51,4.38h39.92l4.51-4.38v-61.61h19.02v67.43l-.31.3-17.28,16.78ZM198.39,180.43h50.99l17-16.5v-66.01h-17.02v61.03l-5.11,4.96h-40.73l-5.11-4.96v-61.03h-17.02v66.01l17,16.5ZM249.36,180.4h-50.97l-16.98-16.49v-65.97h16.97v61.01l5.12,4.97h40.75l5.12-4.97v-61.01h16.97v65.97l-.15.15-16.83,16.34ZM198.8,179.4h50.16l16.39-15.91v-64.55h-14.97v60.44l-5.72,5.55h-41.56l-5.72-5.55v-60.44h-14.97v64.55l16.39,15.91Z"/>
          </g>
        </g>
        <g>
          <g>
            <path class="cls-1" d="M300.34,97.93h67.97v16.5h-62.85l-5.11,4.96v6.58l5.11,4.96h45.86l16.99,16.5v16.5l-16.99,16.5h-67.97v-16.5h62.85l5.11-4.96v-6.58l-5.11-4.96h-45.86l-16.99-16.5v-16.5l16.99-16.5Z"/>
            <path class="cls-1" d="M351.52,180.92h-68.67v-17.5h63.15l4.81-4.67v-6.16l-4.81-4.67h-45.86l-17.29-16.79v-16.92l.15-.15,17.14-16.64h68.67v17.5h-63.15l-4.81,4.67v6.16l4.81,4.67h45.86l17.29,16.79v16.92l-.15.15-17.14,16.64ZM283.85,179.92h67.27l16.69-16.21v-16.07l-16.69-16.21h-45.86l-5.4-5.25v-7l5.4-5.25h62.55v-15.5h-67.27l-16.69,16.21v16.07l16.69,16.21h45.86l5.4,5.25v7l-5.4,5.25h-62.56v15.5Z"/>
          </g>
          <g>
            <path class="cls-1" d="M351.53,180.93h-68.69v-17.52h63.16l4.8-4.66v-6.15l-4.8-4.66h-45.86l-17.3-16.79v-16.93l.16-.15,17.14-16.64h68.69v17.52h-63.16l-4.8,4.66v6.15l4.8,4.66h45.86l17.3,16.79v16.93l-.16.15-17.14,16.64ZM283.86,179.9h67.25l16.69-16.2v-16.06l-16.69-16.2h-45.86l-5.41-5.26v-7.01l5.41-5.26h62.55v-15.47h-67.25l-16.69,16.2v16.06l16.69,16.2h45.86l5.41,5.26v7.01l-5.41,5.26h-62.55v15.47Z"/>
            <path class="cls-1" d="M351.73,181.43h-69.39v-18.52h63.45l4.5-4.37v-5.72l-4.5-4.38h-45.86l-17.59-17.08v-17.35l.31-.3,17.29-16.78h69.39v18.52h-63.45l-4.5,4.37v5.72l4.5,4.37h45.86l17.59,17.08v17.36l-.31.3-17.28,16.78ZM283.34,180.43h67.99l17-16.5v-16.51l-17-16.5h-45.86l-5.1-4.95v-6.57l5.1-4.95h62.86v-16.52h-67.99l-17,16.51v16.51l17,16.5h45.86l5.1,4.95v6.57l-5.1,4.95h-62.86v16.52ZM351.31,180.4h-67.95v-16.47h62.84l5.11-4.97v-6.59l-5.11-4.97h-45.86l-16.98-16.49v-16.49l.15-.15,16.83-16.34h67.95v16.47h-62.84l-5.11,4.97v6.59l5.11,4.97h45.86l16.98,16.49v16.49l-.15.15-16.83,16.34ZM284.36,179.4h66.55l16.39-15.91v-15.64l-16.39-15.91h-45.86l-5.71-5.54v-7.43l5.71-5.54h62.25v-14.47h-66.55l-16.39,15.91v15.64l16.39,15.91h45.86l5.71,5.55v7.43l-5.71,5.54h-62.25v14.47Z"/>
          </g>
        </g>
        <g>
          <g>
            <path class="cls-1" d="M453.27,180.42h-50.98l-16.99-16.5v-49.49l8.49-8.24-8.49-8.24v-16.51h16.99v11.55l5.1,4.95h45.88v16.5h-45.86l-5.12,4.97v39.56l5.12,4.97h45.86v16.5Z"/>
            <path class="cls-1" d="M453.77,180.92h-51.68l-17.29-16.79v-49.92l8.27-8.03-8.27-8.03v-17.23h17.99v11.84l4.8,4.66h46.18v17.5h-46.16l-4.82,4.68v39.13l4.82,4.68h46.16v17.5ZM402.5,179.92h50.27v-15.5h-45.56l-5.41-5.25v-39.98l5.41-5.25h45.56v-15.5h-45.58l-5.4-5.24v-11.26h-15.99v15.8l8.7,8.45-8.7,8.45v49.07l16.69,16.21Z"/>
          </g>
          <g>
            <path class="cls-1" d="M453.78,180.93h-51.7l-17.3-16.79v-49.93l8.26-8.02-8.26-8.03v-17.24h18.02v11.84l4.79,4.65h46.18v17.52h-46.16l-4.81,4.67v39.12l4.81,4.67h46.16v17.52ZM402.5,179.9h50.26v-15.47h-45.56l-5.42-5.26v-39.99l5.42-5.26h45.56v-15.47h-45.57l-5.4-5.24v-11.25h-15.97v15.79l8.71,8.46-8.71,8.46v49.06l16.69,16.2Z"/>
            <path class="cls-1" d="M454.28,181.43h-52.4l-17.59-17.08v-50.35l8.04-7.81-8.04-7.81v-17.95h19.02v12.13l4.5,4.37h46.48v18.52h-46.46l-4.51,4.38v38.7l4.51,4.38h46.46v18.52ZM402.29,180.43h50.99v-16.52h-45.87l-5.11-4.96v-39.55l5.11-4.96h45.87v-16.52h-45.89l-5.09-4.94v-11.55h-17.02v16.53l8.48,8.24-8.48,8.23v49.5l17,16.5ZM453.26,180.4h-50.96l-16.98-16.49v-49.48l8.49-8.24-8.49-8.25v-16.5h16.97v11.54l5.11,4.96h45.87v16.47h-45.85l-5.12,4.97v39.57l5.12,4.97h45.85v16.47ZM402.7,179.4h49.55v-14.47h-45.26l-5.72-5.55v-40.42l5.72-5.55h45.26v-14.47h-45.28l-5.7-5.53v-10.96h-14.97v15.08l8.93,8.67-8.93,8.67v48.63l16.39,15.91Z"/>
          </g>
        </g>
        <g>
          <g>
            <path class="cls-1" d="M538.23,97.93v16.5h-45.86l-5.12,4.97v61.02h-16.99v-65.99l16.99-16.5h50.98Z"/>
            <path class="cls-1" d="M487.75,180.92h-17.99v-66.7l17.29-16.79h51.68v17.5h-46.16l-4.82,4.68v61.31ZM470.76,179.92h15.99v-60.73l5.41-5.25h45.56v-15.5h-50.27l-16.7,16.21v65.28Z"/>
          </g>
          <g>
            <path class="cls-1" d="M487.77,180.93h-18.02v-66.72l.16-.15,17.14-16.64h51.7v17.52h-46.16l-4.81,4.67v61.32ZM470.77,179.9h15.97v-60.73l5.42-5.26h45.56v-15.47h-50.26l-16.69,16.2v65.26Z"/>
            <path class="cls-1" d="M488.27,181.43h-19.02v-67.43l17.59-17.08h52.4v18.52h-46.46l-4.51,4.38v61.6ZM470.25,180.43h17.02v-61.03l5.11-4.96h45.87v-16.52h-50.99l-17,16.51v66.01ZM487.24,180.4h-16.97v-65.97l16.98-16.49h50.96v16.47h-45.85l-5.12,4.97v61.01ZM471.27,179.4h14.97v-60.44l5.72-5.55h45.26v-14.47h-49.55l-16.39,15.91v64.55Z"/>
          </g>
        </g>
        <g>
          <g>
            <path class="cls-1" d="M572.22,97.93h50.98l16.99,16.5v32.99h-67.97v11.53l5.12,4.97h62.85v16.5h-67.97l-16.99-16.5v-49.49l16.99-16.5ZM618.08,114.43h-40.74l-5.12,4.97v11.53h50.98v-11.53l-5.12-4.97Z"/>
            <path class="cls-1" d="M640.68,180.92h-68.67l-17.29-16.79v-49.92l17.29-16.79h51.38l17.29,16.79v33.71h-67.97v10.82l4.82,4.68h63.15v17.5ZM572.42,179.92h67.27v-15.5h-62.56l-5.41-5.25v-12.24h67.97v-32.28l-16.7-16.21h-50.57l-16.7,16.21v49.07l16.7,16.21ZM623.69,131.42h-51.98v-12.24l5.41-5.25h41.15l5.41,5.25v12.24ZM572.72,130.42h49.98v-10.82l-4.82-4.68h-40.34l-4.82,4.68v10.82Z"/>
          </g>
          <g>
            <path class="cls-1" d="M640.7,180.93h-68.69l-17.3-16.79v-49.93l17.3-16.79h51.39l17.3,16.79v33.72h-67.97v10.8l4.81,4.67h63.16v17.52ZM572.42,179.9h67.25v-15.47h-62.55l-5.42-5.26v-12.26h67.97v-32.26l-16.69-16.2h-50.56l-16.69,16.2v49.06l16.69,16.2ZM623.7,131.44h-52v-12.26l5.42-5.26h41.16l5.42,5.26v12.26ZM572.73,130.41h49.95v-10.8l-4.81-4.67h-40.33l-4.81,4.67v10.8Z"/>
            <path class="cls-1" d="M641.2,181.43h-69.39l-17.59-17.08v-50.35l17.59-17.08h51.8l17.59,17.08v34.43h-67.97v10.09l4.52,4.38h63.45v18.52ZM572.21,180.43h67.99v-16.52h-62.86l-5.11-4.96v-11.51h67.97v-33.01l-17-16.51h-50.99l-17,16.51v49.5l17,16.5ZM640.17,180.4h-67.95l-16.99-16.49v-49.48l16.99-16.49h50.97l16.99,16.49v32.98h-67.97v11.55l5.12,4.97h62.84v16.47ZM572.63,179.4h66.54v-14.47h-62.25l-5.72-5.55v-12.97h67.97v-31.55l-16.39-15.91h-50.15l-16.39,15.91v48.63l16.39,15.91ZM624.2,131.94h-53v-12.97l5.72-5.55h41.57l5.72,5.55v12.97ZM572.2,130.94h51v-11.55l-5.12-4.97h-40.75l-5.12,4.97v11.55ZM623.18,130.91h-50.95v-11.51l5.11-4.96h40.73l5.11,4.96v11.51ZM573.23,129.91h48.95v-10.09l-4.51-4.38h-39.92l-4.52,4.38v10.09Z"/>
          </g>
        </g>
        <g>
          <polygon class="cls-1" points="377.92 106.3 368.82 97.42 368.82 114.97 377.92 106.3"/>
          <path class="cls-1" d="M368.32,116.14v-19.91l10.32,10.08-10.32,9.84ZM369.32,98.6v15.2l7.88-7.51-7.88-7.69Z"/>
        </g>
      </g>
      <g>
        <g>
          <g>
            <path class="cls-1" d="M616.77,56.92l18.63-10.98-4.8-8.26-18.49,10.72c-10.45-14.57-26.72-24.3-44.76-25.73V1.01h-9.56v21.66c-18.04,1.42-34.3,11.16-44.76,25.73l-18.49-10.72-4.86,8.1,18.69,11.14c-3.88,7.9-5.82,16.78-5.82,25.65h14.19c-.15-12.46,4.85-25.21,16.36-35.04,25.12-21.46,64.87-8.93,73.51,22.69,1.12,4.1,1.63,8.25,1.6,12.35h14.38c0-8.88-1.93-17.77-5.83-25.65Z"/>
            <path class="cls-1" d="M623.1,83.07h-15.38v-.5c.04-4.14-.49-8.25-1.58-12.21-4.03-14.76-15.39-26.33-30.37-30.94-14.91-4.59-30.73-1.41-42.33,8.5-10.59,9.05-16.34,21.35-16.18,34.65v.51s-15.19,0-15.19,0v-.5c0-8.94,1.96-17.73,5.67-25.46l-18.72-11.16,5.37-8.95,18.52,10.74c10.73-14.74,26.87-24.01,44.4-25.53V.51h10.56v21.71c17.55,1.53,33.68,10.81,44.4,25.53l18.53-10.75,5.29,9.12-18.66,11c3.72,7.7,5.68,16.49,5.68,25.46v.5ZM608.72,82.07h13.37c-.07-8.8-2.06-17.41-5.78-24.93l-.21-.42,18.6-10.96-4.29-7.4-18.45,10.7-.26-.37c-10.63-14.83-26.81-24.13-44.39-25.52l-.46-.04V1.51h-8.56v21.63l-.46.04c-17.56,1.38-33.74,10.68-44.39,25.52l-.26.37-18.45-10.7-4.35,7.24,18.65,11.12-.2.41c-3.71,7.54-5.7,16.16-5.77,24.93h13.19c-.01-13.4,5.85-25.79,16.54-34.92,11.86-10.14,28.04-13.39,43.28-8.7,15.31,4.71,26.92,16.54,31.04,31.63,1.06,3.89,1.61,7.92,1.62,11.98Z"/>
          </g>
          <g>
            <path class="cls-1" d="M623.11,83.09h-15.41v-.52c.04-4.14-.49-8.25-1.57-12.21-4.03-14.76-15.38-26.32-30.36-30.93-14.9-4.58-30.72-1.41-42.32,8.5-10.59,9.05-16.33,21.35-16.18,34.64v.52s-15.22,0-15.22,0v-.51c0-8.94,1.96-17.73,5.67-25.45l-18.72-11.16,5.38-8.97,18.52,10.74c10.73-14.73,26.86-24.01,44.39-25.53V.5h10.58v21.71c17.54,1.53,33.68,10.81,44.39,25.53l18.53-10.75,5.31,9.14-18.66,11c3.72,7.7,5.68,16.49,5.67,25.45v.51ZM608.74,82.06h13.35c-.07-8.8-2.06-17.4-5.78-24.91l-.21-.43,18.6-10.96-4.28-7.37-18.45,10.7-.27-.38c-10.63-14.82-26.81-24.12-44.38-25.52l-.47-.04V1.52h-8.53v21.63l-.47.04c-17.56,1.38-33.73,10.68-44.38,25.52l-.27.38-18.45-10.7-4.33,7.22,18.65,11.12-.21.42c-3.7,7.54-5.69,16.14-5.77,24.91h13.16c0-13.4,5.85-25.79,16.54-34.91,11.87-10.14,28.05-13.39,43.29-8.7,15.32,4.71,26.92,16.54,31.05,31.64,1.06,3.88,1.6,7.91,1.62,11.97Z"/>
            <path class="cls-1" d="M623.61,83.58h-16.41v-1.02c.04-4.1-.48-8.16-1.55-12.08-3.99-14.59-15.21-26.03-30.03-30.59-14.73-4.53-30.38-1.39-41.85,8.4-10.47,8.95-16.16,21.11-16,34.26v1.02s-16.22,0-16.22,0v-1.01c0-8.84,1.91-17.57,5.52-25.26l-18.76-11.18,5.89-9.82,18.56,10.76c10.7-14.49,26.7-23.69,44.03-25.32V0h11.58v21.75c17.34,1.65,33.34,10.85,44.03,25.32l18.57-10.77,5.81,10-18.69,11.01c3.62,7.66,5.53,16.39,5.53,25.25v1.01ZM608.21,82.58h14.4c0-8.89-1.94-17.62-5.62-25.25l-.2-.42,18.62-10.98-4.81-8.28-18.49,10.72-.27-.36c-10.61-14.58-26.66-23.8-44.03-25.32l-.46-.04V1h-9.58v21.66l-.46.04c-17.35,1.5-33.4,10.73-44.03,25.32l-.27.36-18.49-10.72-4.87,8.12,18.69,11.14-.2.41c-3.68,7.66-5.62,16.38-5.62,25.24h0s14.22,0,14.22,0c-.16-13.44,5.65-25.88,16.35-35.03,11.73-10.02,27.73-13.23,42.79-8.6,15.14,4.66,26.62,16.35,30.7,31.28,1.09,4,1.63,8.15,1.6,12.35h0ZM622.59,82.56h-14.35v-.5c-.01-4.01-.55-8-1.6-11.84-4.08-14.93-15.56-26.63-30.71-31.3-15.07-4.63-31.08-1.42-42.82,8.6-10.56,9.02-16.37,21.29-16.37,34.53v.5h-14.17v-.5c.08-8.84,2.09-17.53,5.82-25.13h0s-18.69-11.15-18.69-11.15l4.84-8.08,18.49,10.72h0c10.73-14.97,27.04-24.34,44.75-25.73h.01V1.02h9.53v21.66c17.73,1.4,34.04,10.78,44.76,25.72h0s18.49-10.71,18.49-10.71l4.78,8.24-18.62,10.98h0c3.74,7.58,5.76,16.27,5.83,25.14v.5ZM609.23,81.56h12.35c-.14-8.54-2.11-16.9-5.72-24.19l-.42-.84,18.57-10.94-3.78-6.51-18.41,10.67-.54-.75c-10.54-14.7-26.59-23.93-44.01-25.31l-.93-.07V2.02h-7.53v21.59l-.93.07c-17.41,1.37-33.45,10.59-44.01,25.31l-.54.75-18.42-10.68-3.82,6.37,18.62,11.1-.41.84c-3.59,7.32-5.56,15.67-5.71,24.19h12.16c.14-13.35,6.06-25.69,16.71-34.79,12-10.25,28.35-13.54,43.76-8.8,15.48,4.76,27.21,16.72,31.38,31.99,1.03,3.77,1.58,7.67,1.63,11.6Z"/>
          </g>
        </g>
        <g>
          <g>
            <path class="cls-1" d="M595.95,68.73c-.31-1.32-3.97-8.17-5.04-8l-14.22,8.1c-2.89-2.09-5.74-4.3-9.34-5.05v-17.2h-9.56v17.2c-3.6.75-6.45,2.95-9.34,5.05l-14.22-8.1c-1.15-.18-4.61,6.73-5.07,8l14.47,8.43c-.07,1.86-.45,3.55-.52,5.42h9.67c-.1-3.78,1.81-7.56,6.2-9.17,8.06-2.94,13.1,3.11,13.3,9.17h9.76c-.07-1.87-.45-3.56-.52-5.42l14.44-8.43Z"/>
            <path class="cls-1" d="M582.55,83.07h-10.76l-.02-.48c-.11-3.32-1.71-6.42-4.17-8.08-2.34-1.58-5.26-1.8-8.45-.63-3.78,1.38-5.98,4.63-5.87,8.68v.51s-10.68,0-10.68,0l.02-.52c.04-.96.15-1.88.26-2.77.1-.77.2-1.55.24-2.36l-14.57-8.49.14-.39c.03-.09,3.64-8.33,5.53-8.33.03,0,.07,0,.1,0l.17.06,13.94,7.94.33-.24c2.59-1.89,5.27-3.83,8.55-4.62v-17.3h10.56v17.3c3.28.78,5.95,2.73,8.55,4.62l.32.24,14.11-8c1.62-.27,5.37,7.4,5.6,8.38l.09.36-14.5,8.46c.04.8.14,1.59.24,2.35.11.89.23,1.81.26,2.77l.02.52ZM572.75,82.07h8.76c-.05-.74-.14-1.46-.23-2.16-.11-.88-.23-1.79-.26-2.74v-.3s14.34-8.38,14.34-8.38c-.64-1.73-3.43-6.7-4.36-7.24l-14.34,8.16-.85-.61c-2.61-1.9-5.31-3.86-8.56-4.54l-.4-.08v-17.11h-8.56v17.11l-.4.08c-3.25.67-5.95,2.64-8.56,4.54l-.85.62-14.37-8.19c-.83.38-3.5,5.3-4.33,7.27l14.36,8.37v.3c-.05.95-.16,1.86-.27,2.74-.09.7-.18,1.42-.23,2.16h8.64c.08-4.21,2.55-7.68,6.53-9.14,4.43-1.62,7.53-.49,9.35.74,2.61,1.76,4.33,4.94,4.59,8.39Z"/>
          </g>
          <g>
            <path class="cls-1" d="M582.57,83.09h-10.78l-.02-.5c-.11-3.32-1.71-6.41-4.17-8.07-2.34-1.58-5.25-1.8-8.44-.63-3.78,1.38-5.97,4.62-5.87,8.67v.53s-10.71,0-10.71,0l.02-.53c.04-.96.15-1.88.26-2.76.1-.76.2-1.55.24-2.35l-14.57-8.49.15-.4c.03-.09,3.78-8.62,5.64-8.33l.17.06,13.94,7.94.32-.23c2.59-1.89,5.27-3.83,8.54-4.62v-17.31h10.58v17.31c3.27.79,5.95,2.73,8.54,4.62l.32.23,14.11-8s.06,0,.09,0c1.7,0,5.3,7.43,5.53,8.4l.09.37-14.5,8.46c.04.8.14,1.59.24,2.35.11.89.23,1.81.26,2.77l.02.53ZM572.77,82.06h8.73c-.05-.73-.14-1.45-.23-2.14-.11-.88-.23-1.8-.26-2.74v-.31s14.34-8.38,14.34-8.38c-.65-1.73-3.41-6.66-4.35-7.22l-14.34,8.16-.86-.62c-2.61-1.9-5.31-3.86-8.55-4.53l-.41-.08v-17.11h-8.53v17.11l-.41.08c-3.25.67-5.95,2.64-8.56,4.54l-.85.62-14.38-8.19c-.82.39-3.48,5.28-4.31,7.25l14.36,8.37v.31c-.05.95-.16,1.86-.27,2.75-.09.7-.18,1.41-.23,2.14h8.61c.09-4.21,2.56-7.68,6.54-9.14,4.43-1.62,7.54-.49,9.37.75,2.6,1.76,4.34,4.94,4.59,8.39Z"/>
            <path class="cls-1" d="M583.09,83.58h-11.78l-.03-.98c-.1-3.16-1.62-6.1-3.95-7.67-2.2-1.48-4.96-1.68-7.99-.58-3.56,1.3-5.63,4.36-5.54,8.19l.03,1.04h-11.75l.04-1.05c.04-.99.16-1.96.27-2.81.09-.7.17-1.36.22-2.01l-14.67-8.55.29-.79c.03-.09,3.81-9.03,6.18-8.65l.26.08,13.73,7.81.06-.04c2.53-1.84,5.14-3.74,8.34-4.6v-17.42h11.58v17.42c3.2.86,5.81,2.76,8.33,4.6l.06.04,14.04-7.9h.12c2.2,0,5.86,8.11,6.02,8.78l.17.73-14.55,8.49c.05.68.13,1.35.22,2.01.11.85.23,1.81.27,2.81l.04,1.05ZM572.27,82.58h9.78,0c-.04-.97-.15-1.91-.26-2.73-.1-.77-.2-1.57-.24-2.38l-.02-.3,14.44-8.43h0c-.28-1.18-2.82-6.02-4.31-7.55,1.3,1.37,3.62,5.68,4.16,7.13l.15.39-14.45,8.44h0c.03.92.15,1.81.25,2.67.09.74.19,1.47.24,2.21l.04.53h-9.73l-.04-.46c-.24-3.29-1.92-6.36-4.37-8.01-1.73-1.17-4.68-2.24-8.91-.69-3.8,1.39-6.12,4.63-6.21,8.68v.49h-9.65l.04-.53c.05-.74.14-1.46.23-2.17.11-.9.23-1.79.26-2.7h0s-14.48-8.45-14.48-8.45l.17-.41c.68-1.61,3.46-6.99,4.56-7.51l.22-.11h-.01c-.98,0-3.96,5.61-4.97,8.04l14.48,8.44-.02.31c-.04.79-.14,1.56-.23,2.31-.12.95-.24,1.85-.27,2.79h0s9.69,0,9.69,0c-.11-4.28,2.21-7.7,6.19-9.16,3.34-1.22,6.42-.98,8.89.69,2.59,1.75,4.27,5,4.39,8.47h0ZM573.22,81.56h7.73c-.05-.54-.12-1.06-.18-1.58-.12-.92-.23-1.83-.27-2.79l-.02-.61,14.23-8.31c-.8-1.87-2.9-5.49-3.77-6.4l-14.32,8.15-1.12-.81c-2.57-1.87-5.22-3.8-8.36-4.45l-.81-.17v-17.02h-7.53v17.02l-.81.17c-3.14.65-5.8,2.58-8.36,4.45l-1.12.81-14.37-8.18c-.77.81-2.76,4.31-3.72,6.45l14.23,8.29-.02.61c-.04.96-.15,1.87-.26,2.75-.07.54-.14,1.08-.19,1.61h7.59c.27-4.19,2.86-7.65,6.85-9.11,4.63-1.69,7.89-.5,9.82.8,2.62,1.77,4.39,4.85,4.77,8.31ZM534.15,60.69l14.31,8.15.59-.43c2.65-1.93,5.39-3.92,8.75-4.62h0v-17.2h9.53v17.2c3.36.7,6.1,2.69,8.75,4.62l.59.43,10.99-6.26-10.99,6.23-.58-.42c-2.55-1.86-5.19-3.77-8.36-4.54l-.38-.09v-17.2h-9.58v17.2l-.38.09c-3.18.76-5.82,2.68-8.37,4.54l-.58.42-14.31-8.12ZM591.15,60.78l.1.06s.01,0,.02.01c-.04-.03-.09-.06-.13-.08Z"/>
          </g>
        </g>
      </g>
    </g>
  </g>
  <g>
    <g>
      <circle class="cls-1" cx="10.59" cy="212.81" r="10.09"/>
      <path class="cls-1" d="M10.59,223.39c-5.84,0-10.59-4.75-10.59-10.59s4.75-10.59,10.59-10.59,10.59,4.75,10.59,10.59-4.75,10.59-10.59,10.59ZM10.59,203.22c-5.29,0-9.59,4.3-9.59,9.59s4.3,9.59,9.59,9.59,9.59-4.3,9.59-9.59-4.3-9.59-9.59-9.59Z"/>
    </g>
    <g>
      <circle class="cls-1" cx="95.49" cy="212.81" r="10.09"/>
      <path class="cls-1" d="M95.49,223.39c-5.84,0-10.59-4.75-10.59-10.59s4.75-10.59,10.59-10.59,10.59,4.75,10.59,10.59-4.75,10.59-10.59,10.59ZM95.49,203.22c-5.29,0-9.59,4.3-9.59,9.59s4.3,9.59,9.59,9.59,9.59-4.3,9.59-9.59-4.3-9.59-9.59-9.59Z"/>
    </g>
    <g>
      <circle class="cls-1" cx="230.16" cy="212.81" r="10.09"/>
      <path class="cls-1" d="M230.16,223.39c-5.84,0-10.59-4.75-10.59-10.59s4.75-10.59,10.59-10.59,10.59,4.75,10.59,10.59-4.75,10.59-10.59,10.59ZM230.16,203.22c-5.29,0-9.59,4.3-9.59,9.59s4.3,9.59,9.59,9.59,9.59-4.3,9.59-9.59-4.3-9.59-9.59-9.59Z"/>
    </g>
    <g>
      <circle class="cls-1" cx="350.18" cy="212.81" r="10.09"/>
      <path class="cls-1" d="M350.18,223.39c-5.84,0-10.59-4.75-10.59-10.59s4.75-10.59,10.59-10.59,10.59,4.75,10.59,10.59-4.75,10.59-10.59,10.59ZM350.18,203.22c-5.29,0-9.59,4.3-9.59,9.59s4.3,9.59,9.59,9.59,9.59-4.3,9.59-9.59-4.3-9.59-9.59-9.59Z"/>
    </g>
    <g>
      <circle class="cls-1" cx="438.91" cy="212.81" r="10.09"/>
      <path class="cls-1" d="M438.91,223.39c-5.84,0-10.59-4.75-10.59-10.59s4.75-10.59,10.59-10.59,10.59,4.75,10.59,10.59-4.75,10.59-10.59,10.59ZM438.91,203.22c-5.29,0-9.59,4.3-9.59,9.59s4.3,9.59,9.59,9.59,9.59-4.3,9.59-9.59-4.3-9.59-9.59-9.59Z"/>
    </g>
    <g>
      <circle class="cls-1" cx="526.68" cy="212.81" r="10.09"/>
      <path class="cls-1" d="M526.68,223.39c-5.84,0-10.59-4.75-10.59-10.59s4.75-10.59,10.59-10.59,10.59,4.75,10.59,10.59-4.75,10.59-10.59,10.59ZM526.68,203.22c-5.29,0-9.59,4.3-9.59,9.59s4.3,9.59,9.59,9.59,9.59-4.3,9.59-9.59-4.3-9.59-9.59-9.59Z"/>
    </g>
    <g>
      <circle class="cls-1" cx="674.47" cy="212.81" r="10.09"/>
      <path class="cls-1" d="M674.46,223.39c-5.84,0-10.59-4.75-10.59-10.59s4.75-10.59,10.59-10.59,10.59,4.75,10.59,10.59-4.75,10.59-10.59,10.59ZM674.46,203.22c-5.29,0-9.59,4.3-9.59,9.59s4.3,9.59,9.59,9.59,9.59-4.3,9.59-9.59-4.3-9.59-9.59-9.59Z"/>
    </g>
    <rect class="cls-1" x=".45" y="211.93" width="684.05" height="3"/>
  </g>
</svg>